<?xml version="1.0" encoding="UTF-8" standalone="no"?>
<svg
   xmlns:svg="http://www.w3.org/2000/svg"
   xmlns="http://www.w3.org/2000/svg"
   width="600.0"
   height="600.0"

>
    <g transform="scale(77.17058053524698, -77.17058053524698)   translate(2.784166120836233,-3.1747849802438433)" stroke-width="0.015"  fill="none">
       <!-- hidden lines -->
       <g  stroke="rgb(160,160,160)" fill="none" stroke-dasharray="0.015,0.015" >

       </g>

       <!-- solid lines -->
       <g  stroke="rgb(0,0,0)" fill="none">
			<path d="M-2.5250000000000004,1.457809429703805 L0.0,2.9156188594076102 " />
			<path d="M-2.5249999999999995,-1.4578094297038064 L-2.5250000000000004,1.4578094297038047 " />
			<path d="M-1.7853016518535935e-16,2.9156188594076102 L2.5250000000000004,1.457809429703805 " />
			<path d="M5.35590495556078e-16,-2.9156188594076102 L-2.5249999999999995,-1.4578094297038064 " />
			<path d="M2.5250000000000004,1.457809429703805 L2.525,-1.4578094297038053 " />
			<path d="M2.525,-1.4578094297038053 L4.440892098500626e-16,-2.9156188594076102 " />
			<path d="M-0.9423583984375004,-0.38081054687500004 L-0.9423583984375004,-0.24438476562500003 " />
			<path d="M-0.9423583984375004,-0.24438476562500003 L-0.8290283203125004,-0.24438476562500003 " />
			<path d="M-0.8290283203125002,-0.24438476562500003 L-0.8290283203125002,-0.38081054687500004 " />
			<path d="M-0.8290283203125002,-0.38081054687500004 L-0.9423583984375001,-0.38081054687500004 " />
			<path d="M1.1786865234375004,0.01826171874999999 L1.1786865234375004,0.42109375000000004 " />
			<path d="M1.1786865234375004,0.42109375000000004 L1.6046142578125004,0.42109375000000004 " />
			<path d="M1.6046142578125,0.42109375000000004 L1.6046142578125,0.32978515625000004 " />
			<path d="M1.6046142578125,0.32978515625000004 L1.2780517578125,0.32978515625000004 " />
			<path d="M1.2780517578125004,0.32978515625000004 L1.2780517578125004,0.13320312499999998 " />
			<path d="M1.2780517578125004,0.13320312499999998 L1.3253173828125,0.14528808593749995 " />
			<path d="M1.3253173828125,0.14528808593749998 L1.3725830078125,0.14931640624999998 " />
			<path d="M1.3725830078125,0.14931640624999998 L1.4052795410156251,0.1481666564941406 L1.43623046875,0.14471740722656248 L1.465435791015625,0.1389686584472656 L1.4928955078125001,0.13092041015624997 L1.518609619140625,0.1205726623535156 L1.5425781250000001,0.10792541503906247 L1.5648010253906253,0.09297866821289058 L1.5852783203124998,0.07573242187500029 " />
			<path d="M1.5852783203125003,0.07573242187499996 L1.6036575317382815,0.05652236938476559 L1.6195861816406252,0.03568420410156247 L1.6330642700195312,0.013217926025390597 L1.6440917968750002,-0.010876464843750017 L1.6526687622070313,-0.03659896850585938 L1.658795166015625,-0.0639495849609375 L1.6624710083007812,-0.0929283142089844 L1.6636962890625,-0.12353515624999944 " />
			<path d="M1.6636962890625,-0.12353515625 L1.6624374389648438,-0.1549938201904297 L1.658660888671875,-0.18464813232421878 L1.6523666381835938,-0.2124980926513672 L1.6435546875,-0.23854370117187504 L1.6322250366210938,-0.26278495788574224 L1.618377685546875,-0.2852218627929688 L1.6020126342773438,-0.3058544158935547 L1.5831298828125004,-0.3246826171874997 " />
			<path d="M1.5831298828125,-0.3246826171875 L1.561956024169922,-0.34148826599121096 L1.5387176513671874,-0.3560531616210938 L1.513414764404297,-0.36837730407714847 L1.48604736328125,-0.37846069335937504 L1.456615447998047,-0.38630332946777346 L1.4251190185546876,-0.39190521240234377 L1.3915580749511722,-0.395266342163086 L1.355932617187501,-0.39638671875000003 " />
			<path d="M1.3559326171875004,-0.39638671875000003 L1.3049743652343753,-0.39423828125000004 L1.2530761718750003,-0.3877929687500001 " />
			<path d="M1.253076171875,-0.38779296875 L1.1998352050781251,-0.37705078125 L1.1448486328125005,-0.3620117187500001 " />
			<path d="M1.1448486328125003,-0.36201171875000004 L1.1448486328125003,-0.25297851562500007 " />
			<path d="M1.1448486328125003,-0.25297851562500007 L1.193994140625,-0.27593994140625 L1.2447509765624998,-0.2921875 " />
			<path d="M1.2447509765625,-0.29218750000000004 L1.29779052734375,-0.30185546875 L1.3537841796874999,-0.30507812500000003 " />
			<path d="M1.3537841796875,-0.30507812500000003 L1.3978271484375002,-0.3020233154296875 L1.4370361328125,-0.29285888671875004 L1.4714111328125004,-0.27758483886718754 L1.5009521484375001,-0.25620117187500024 " />
			<path d="M1.5009521484375004,-0.256201171875 L1.5246856689453128,-0.22958068847656252 L1.5416381835937503,-0.19859619140625 L1.5518096923828126,-0.16324768066406253 L1.5552001953125,-0.12353515625000039 " />
			<path d="M1.5552001953125,-0.12353515625 L1.5518096923828126,-0.0838226318359375 L1.5416381835937503,-0.04847412109374999 L1.5246856689453128,-0.017489624023437483 L1.5009521484375006,0.0091308593749998 " />
			<path d="M1.5009521484375004,0.009130859375000022 L1.4714111328125004,0.030514526367187503 L1.4370361328125,0.04578857421874999 L1.3978271484375002,0.05495300292968748 L1.3537841796875005,0.05800781249999998 " />
			<path d="M1.3537841796875,0.05800781249999998 L1.3103454589843753,0.05559082031249998 L1.2670410156250005,0.04833984375000004 " />
			<path d="M1.2670410156250003,0.04833984375 L1.2233337402343754,0.03598632812500001 L1.1786865234375006,0.01826171875000008 " />
			<path d="M0.6893798828125001,-0.48286132812500004 L0.9686767578125002,0.42109375000000004 " />
			<path d="M0.9686767578125001,0.42109375000000004 L1.0599853515625002,0.42109375000000004 " />
			<path d="M1.0599853515625002,0.42109375000000004 L0.7806884765625002,-0.48286132812500004 " />
			<path d="M0.7806884765625001,-0.48286132812500004 L0.6893798828125001,-0.48286132812500004 " />
			<path d="M0.10822753906250002,0.01826171874999999 L0.10822753906250002,0.42109375000000004 " />
			<path d="M0.10822753906250002,0.42109375000000004 L0.5341552734375,0.42109375000000004 " />
			<path d="M0.5341552734375,0.42109375000000004 L0.5341552734375,0.32978515625000004 " />
			<path d="M0.5341552734375,0.32978515625000004 L0.2075927734375,0.32978515625000004 " />
			<path d="M0.20759277343750002,0.32978515625000004 L0.20759277343750002,0.13320312499999998 " />
			<path d="M0.20759277343750002,0.13320312499999998 L0.25485839843749997,0.14528808593749995 " />
			<path d="M0.2548583984375001,0.14528808593749998 L0.30212402343749994,0.14931640624999998 " />
			<path d="M0.30212402343750006,0.14931640624999998 L0.33482055664062504,0.1481666564941406 L0.36577148437500007,0.14471740722656248 L0.39497680664062507,0.1389686584472656 L0.42243652343750004,0.13092041015624997 L0.44815063476562506,0.1205726623535156 L0.47211914062500004,0.10792541503906247 L0.49434204101562507,0.09297866821289058 L0.5148193359374997,0.07573242187500029 " />
			<path d="M0.5148193359375001,0.07573242187499996 L0.5331985473632813,0.05652236938476559 L0.5491271972656251,0.03568420410156247 L0.5626052856445313,0.013217926025390597 L0.5736328125000001,-0.010876464843750017 L0.5822097778320313,-0.03659896850585938 L0.5883361816406251,-0.0639495849609375 L0.5920120239257812,-0.0929283142089844 L0.5932373046875,-0.12353515624999944 " />
			<path d="M0.5932373046875,-0.12353515625 L0.5919784545898438,-0.1549938201904297 L0.588201904296875,-0.18464813232421878 L0.5819076538085938,-0.2124980926513672 L0.573095703125,-0.23854370117187504 L0.5617660522460938,-0.26278495788574224 L0.547918701171875,-0.2852218627929688 L0.5315536499023438,-0.3058544158935547 L0.5126708984375004,-0.3246826171874997 " />
			<path d="M0.5126708984375,-0.3246826171875 L0.49149703979492193,-0.34148826599121096 L0.46825866699218754,-0.3560531616210938 L0.4429557800292969,-0.36837730407714847 L0.41558837890625006,-0.37846069335937504 L0.3861564636230469,-0.38630332946777346 L0.35466003417968756,-0.39190521240234377 L0.3210990905761719,-0.395266342163086 L0.2854736328125007,-0.39638671875000003 " />
			<path d="M0.28547363281250004,-0.39638671875000003 L0.23451538085937504,-0.39423828125000004 L0.18261718750000025,-0.3877929687500001 " />
			<path d="M0.18261718750000003,-0.38779296875 L0.12937622070312502,-0.37705078125 L0.07438964843750026,-0.3620117187500001 " />
			<path d="M0.07438964843750001,-0.36201171875000004 L0.07438964843750001,-0.25297851562500007 " />
			<path d="M0.07438964843750001,-0.25297851562500007 L0.12353515625,-0.27593994140625 L0.17429199218749977,-0.2921875 " />
			<path d="M0.1742919921875,-0.29218750000000004 L0.22733154296875002,-0.30185546875 L0.2833251953124998,-0.30507812500000003 " />
			<path d="M0.28332519531250006,-0.30507812500000003 L0.3273681640625001,-0.3020233154296875 L0.3665771484375001,-0.29285888671875004 L0.4009521484375001,-0.27758483886718754 L0.4304931640624998,-0.25620117187500024 " />
			<path d="M0.4304931640625001,-0.256201171875 L0.45422668457031257,-0.22958068847656252 L0.47117919921875007,-0.19859619140625 L0.48135070800781254,-0.16324768066406253 L0.48474121093750006,-0.12353515625000039 " />
			<path d="M0.48474121093750006,-0.12353515625 L0.48135070800781254,-0.0838226318359375 L0.47117919921875007,-0.04847412109374999 L0.45422668457031257,-0.017489624023437483 L0.4304931640625003,0.0091308593749998 " />
			<path d="M0.4304931640625001,0.009130859375000022 L0.4009521484375001,0.030514526367187503 L0.3665771484375001,0.04578857421874999 L0.3273681640625001,0.05495300292968748 L0.28332519531250044,0.05800781249999998 " />
			<path d="M0.28332519531250006,0.05800781249999998 L0.23988647460937504,0.05559082031249998 L0.19658203125000023,0.04833984375000004 " />
			<path d="M0.19658203125000004,0.04833984375 L0.15287475585937502,0.03598632812500001 L0.10822753906250021,0.01826171875000008 " />
			<path d="M-0.6200927734375,0.32978515625000004 L-0.6200927734375,0.42109375000000004 " />
			<path d="M-0.6200927734375,0.42109375000000004 L-0.10446777343749991,0.42109375000000004 " />
			<path d="M-0.10446777343750002,0.42109375000000004 L-0.10446777343750002,0.37490234375 " />
			<path d="M-0.10446777343750002,0.37490234375 L-0.39558105468750016,-0.38081054687500016 " />
			<path d="M-0.39558105468750016,-0.38081054687500004 L-0.5089111328125001,-0.38081054687500004 " />
			<path d="M-0.5089111328125001,-0.38081054687500004 L-0.2349853515625001,0.32978515625000004 " />
			<path d="M-0.2349853515625001,0.32978515625000004 L-0.6200927734375001,0.32978515625000004 " />
			<path d="M-1.6234130859375004,-0.38081054687500004 L-1.6234130859375004,-0.28950195312500004 " />
			<path d="M-1.6234130859375004,-0.28950195312500004 L-1.4461669921875004,-0.28950195312500004 " />
			<path d="M-1.4461669921875004,-0.28950195312500004 L-1.4461669921875004,0.322265625 " />
			<path d="M-1.4461669921875004,0.322265625 L-1.6389892578125005,0.28359375 " />
			<path d="M-1.6389892578125003,0.28359375 L-1.6389892578125003,0.382421875 " />
			<path d="M-1.6389892578125003,0.382421875 L-1.4472412109375004,0.42109375000000004 " />
			<path d="M-1.4472412109375004,0.42109375000000004 L-1.3387451171875004,0.42109375000000004 " />
			<path d="M-1.3387451171875004,0.42109375000000004 L-1.3387451171875004,-0.28950195312500004 " />
			<path d="M-1.3387451171875004,-0.28950195312500004 L-1.1614990234375004,-0.28950195312500004 " />
			<path d="M-1.1614990234375004,-0.28950195312500004 L-1.1614990234375004,-0.38081054687500004 " />
			<path d="M-1.1614990234375004,-0.38081054687500004 L-1.6234130859375004,-0.38081054687500004 " />

       </g>
    </g>
    
</svg>
