<?xml version="1.0" encoding="UTF-8" standalone="no"?>
<svg
   xmlns:svg="http://www.w3.org/2000/svg"
   xmlns="http://www.w3.org/2000/svg"
   width="900.0"
   height="700.0"

>
    <g transform="scale(117.47197856360262, -117.47197856360262)   translate(3.0432789535969165,-1.2892829396448895)" stroke-width="0.015"  fill="none">
       <!-- hidden lines -->
       <g  stroke="rgb(160,160,160)" fill="none" stroke-dasharray="0.015,0.015" >

       </g>

       <!-- solid lines -->
       <g  stroke="rgb(0,0,0)" fill="none">
			<path d="M-2.8730255855635227,-1.0736942022571514 L-1.8665337091602965,-2.3943162260927253 " />
			<path d="M-2.8730255855635223,0.2030594373509556 L-2.8730255855635223,-1.0736942022571516 " />
			<path d="M-1.0064918764032247,1.1190295716114955 L-2.8730255855635223,0.20305943735095577 " />
			<path d="M1.8665337091602967,0.9159701342605396 L-1.0064918764032251,1.1190295716114955 " />
			<path d="M2.8730255855635223,-0.20305943735095539 L1.8665337091602967,0.9159701342605395 " />
			<path d="M-1.8665337091602967,-2.3943162260927253 L1.0064918764032267,-2.7989681156677584 " />
			<path d="M1.866533709160297,-0.5623759575716454 L-1.0064918764032251,-0.15772406799661154 " />
			<path d="M2.8730255855635227,-1.8829979814072184 L1.8665337091602967,-0.5623759575716452 " />
			<path d="M1.0064918764032265,-2.798968115667758 L2.8730255855635223,-1.882997981407218 " />
			<path d="M-2.2545160608184105,-0.770171019342297 L-2.8730255855635223,-1.0736942022571516 " />
			<path d="M-2.2545160608184114,-0.7701710193422971 L-1.4865081760209224,-0.8172757903570322 " />
			<path d="M-1.486508176020922,-0.817275790357032 L-1.6250014011483382,-0.46124725091146623 " />
			<path d="M-1.0064918764032245,-0.1577240679966117 L-1.6250014011483382,-0.4612472509114671 " />
			<path d="M-1.124988009573358,-0.9780487005085023 L-1.1989237294942008,-1.0179324788291024 L-1.2646543227370661,-1.0609672098967537 L-1.3217299459708838,-1.1068583750433585 L-1.346897688199918,-1.130777680042635 L-1.369759988260748,-1.1552919068981864 L-1.390277713477533,-1.1803590953833305 L-1.4084157443090304,-1.205936338784455 L-1.4241430344616028,-1.2319798573430831 L-1.4374326640301778,-1.2584450731922996 L-1.4482618855761964,-1.285286686659275 L-1.456612163063685,-1.3124587538032837 L-1.4624692035868017,-1.339914765056495 L-1.4658229818345518,-1.3676077248329224 " />
			<path d="M1.4658229818345523,-1.5890844588314412 L1.466688792563315,-1.562980162541945 L1.4653532847348527,-1.5367488409752585 L1.4618184627813122,-1.5104298641021885 L1.4560896320334527,-1.4840627334533198 L1.4481753907579942,-1.4576870228321013 L1.4380876172526886,-1.43134231891946 L1.411455275035382,-1.3789039859125698 L1.3763524328016286,-1.327062430128965 L1.332989751584036,-1.2761287658539402 L1.2816274617975973,-1.226408658886271 L1.222573801531168,-1.178200492160462 L1.156183166732748,-1.1317935750753065 L1.0828539843897882,-1.0874664072750266 L1.0030263214680848,-1.0454850073024853 L0.9171792439586396,-1.0061013161546433 L0.825827941881512,-0.9695516853209291 L0.7295206375002266,-0.9360554583781835 L0.6288352953013496,-0.9058136546543925 L0.5243761534834537,-0.8790077628608675 L0.4167700977708925,-0.8557986519325959 L0.3066628993140567,-0.8363256056130852 L0.19471533925340292,-0.8207054865773964 L0.08159924320473567,-0.8090320351096808 L-0.032006550536187825,-0.8013753065440307 L-0.14542026487393067,-0.7977812508447055 L-0.2579612754301288,-0.7982714368487761 L-0.36895419514248595,-0.80284292282608 L-0.477732927433321,-0.8114682741332879 L-0.5836446636235689,-0.8240957278561356 L-0.6860538006027307,-0.8406495034517615 L-0.7843457552438657,-0.8610302575269063 L-0.8779306526723483,-0.8851156800227385 L-0.9662468662541437,-0.9127612282284432 L-1.0487643880592596,-0.943800994218581 L-1.1249880095733495,-0.9780487005084982 " />
			<path d="M-2.2545160608184105,-0.770171019342297 L-2.2545160608184105,-0.42422788199889905 " />
			<path d="M-2.2545160608184105,-0.4242278819988991 L-1.6250014011483378,-0.11530411356806892 " />
			<path d="M-1.6250014011483382,-0.1153041135680688 L-1.6250014011483382,-0.4612472509114668 " />
			<path d="M-1.0064918764032247,1.1190295716114955 L-1.0064918764032247,-0.15772406799661165 " />
			<path d="M1.8665337091602967,0.9159701342605396 L1.8665337091602967,-0.5623759575716453 " />
			<path d="M2.8730255855635223,-0.20305943735095539 L2.8730255855635223,-1.882997981407218 " />
			<path d="M-1.6250014011483382,-0.42422788199889905 L-2.2545160608184105,-0.4242278819988991 " />
			<path d="M-1.1383789888169311,-1.1553025796868976 L-1.212314708737774,-1.1951863580074977 L-1.2780453019806393,-1.238221089075149 L-1.335120925214457,-1.2841122542217538 L-1.360288667443491,-1.3080315592210303 L-1.3831509675043212,-1.3325457860765817 L-1.4036686927211062,-1.3576129745617258 L-1.4218067235526035,-1.3831902179628504 L-1.437534013705176,-1.4092337365214784 L-1.450823643273751,-1.435698952370695 L-1.4616528648197695,-1.4625405658376702 L-1.4700031423072581,-1.489712632981679 L-1.4758601828303748,-1.5171686442348904 L-1.479213961078125,-1.5448616040113177 " />
			<path d="M-1.4792139610781254,-1.5448616040113239 L-1.4799385938734224,-1.577958372460192 L-1.477130185010676,-1.6112421863205688 L-1.4707955001928241,-1.644632861969547 L-1.4609498002304462,-1.6780499583448103 L-1.4476168042771331,-1.7114129707341987 L-1.4308286326879682,-1.7446415247186116 L-1.4106257296387807,-1.7776555698010228 L-1.3870567656925812,-1.81037557225514 L-1.360178520547913,-1.8427227067291176 L-1.3300557462515867,-1.8746190461427332 L-1.296761011205325,-1.9059877494205504 L-1.2603745253421286,-1.9367532466087987 L-1.2209839468935222,-1.9668414209300122 L-1.1786841712131952,-1.9961797873368388 L-1.1335771021657848,-2.0246976671348667 L-1.085771406631538,-2.052326358253791 L-1.0353822527182819,-2.078999300756719 L-0.9825310323113622,-2.1046522371888874 L-0.8699573094943003,-2.152653497323748 L-0.7491343846701374,-2.195867860283116 L-0.6212258486534591,-2.2338791481283193 L-0.4874635305680246,-2.266321291378324 L-0.349135634658918,-2.292881854458954 L-0.20757433418146343,-2.3133050446282617 L-0.0641429418445371,-2.3273941754004657 L0.0797772196360814,-2.335013560744327 L0.22280012043057024,-2.3360898218138044 L0.3635483718200083,-2.330612593626455 L0.500666491202695,-2.31863462488388 L0.632833956132586,-2.3002712699728947 L0.75877792167232,-2.2756993780397226 L0.8772854785857761,-2.2451555898360422 L0.933390846624822,-2.227733984763691 L0.9872153343170564,-2.208934058739189 L1.0386292737571614,-2.1888011024310057 L1.087508804261697,-2.1673836178943273 L1.1337361707603357,-2.144733201725353 L1.1772000074781432,-2.120904420760576 L1.2177956062254838,-2.0959546806204945 L1.2554251686492215,-2.069944087414446 L1.289998041837516,-2.042935302939722 L1.321430936710632,-2.0149933937238127 L1.3496481286716222,-1.986185674273441 L1.3745816400335191,-1.9565815449080213 L1.396171403783535,-1.9262523245682108 L1.414365408289755,-1.8952710790023333 L1.4291198226017172,-1.863712444744594 L1.440399102043011,-1.8316524493091295 L1.4481760738415133,-1.799168328033068 L1.452432002590979,-1.7663383380098396 " />
			<path d="M1.4524320025909792,-1.7663383380098365 L1.4532978133197418,-1.7402340417203404 L1.4519623054912796,-1.7140027201536538 L1.448427483537739,-1.6876837432805838 L1.4426986527898795,-1.6613166126317152 L1.434784411514421,-1.6349409020104966 L1.4246966380091155,-1.6085961980978554 L1.3980642957918088,-1.556157865090965 L1.3629614535580554,-1.5043163093073604 L1.319598772340463,-1.4533826450323355 L1.2682364825540242,-1.4036625380646663 L1.2091828222875949,-1.3554543713388574 L1.1427921874891749,-1.3090474542537018 L1.069463005146215,-1.264720286453422 L0.9896353422245117,-1.2227388864808806 L0.9037882647150665,-1.1833551953330386 L0.8124369626379389,-1.1468055644993242 L0.7161296582566534,-1.1133093375565788 L0.6154443160577765,-1.0830675338327878 L0.5109851742398805,-1.0562616420392628 L0.4033791185273194,-1.0330525311109913 L0.2932719200704836,-1.0135794847914805 L0.1813243600098298,-0.9979593657557917 L0.06820826396116254,-0.9862859142880761 L-0.045397529779760956,-0.978629185722426 L-0.1588112441175038,-0.9750351300231008 L-0.27135225467370194,-0.9755253160271714 L-0.3823451743860591,-0.9800968020044754 L-0.49112390667689415,-0.9887221533116832 L-0.5970356428671421,-1.001349607034531 L-0.6994447798463038,-1.017903382630157 L-0.7977367344874389,-1.0382841367053017 L-0.8913216319159214,-1.0623695592011337 L-0.9796378454977168,-1.0900151074068385 L-1.0621553673028328,-1.1210548733969763 L-1.1383789888169227,-1.1553025796868934 " />
			<path d="M1.452432002590979,-1.7663383380098363 L1.465822981834552,-1.589084458831441 " />
			<path d="M-1.4792139610781252,-1.544861604011324 L-1.465822981834552,-1.3676077248329288 " />

       </g>
    </g>
    
</svg>
